<svg width="100" height="100" viewBox="0 0 100 100" fill="none" xmlns="http://www.w3.org/2000/svg">
  <defs>
    <linearGradient id="logo_grad" x1="0%" y1="0%" x2="100%" y2="100%">
      <stop offset="0%" stop-color="#E11D48" />
      <stop offset="100%" stop-color="#F43F5E" />
    </linearGradient>
  </defs>
  <rect width="100" height="100" rx="24" fill="white shadow"/>
  <path d="M50 85C50 85 15 65 15 40C15 25 25 15 40 15C45 15 48 18 50 22C52 18 55 15 60 15C75 15 85 25 85 40C85 65 50 85 50 85Z" fill="url(#logo_grad)" />
  <circle cx="50" cy="42" r="12" fill="white" fill-opacity="0.3" />
  <path d="M40 40C40 35 45 32 50 32C55 32 60 35 60 40" stroke="white" stroke-width="3" stroke-linecap="round" />
</svg>
